<?xml version="1.0" encoding="utf-8"?>
<!-- Generator: Adobe Illustrator 21.0.2, SVG Export Plug-In . SVG Version: 6.00 Build 0)  -->
<svg version="1.1" id="Layer_1" xmlns="http://www.w3.org/2000/svg" xmlns:xlink="http://www.w3.org/1999/xlink" x="0px" y="0px"
	 viewBox="0 0 273 82" style="enable-background:new 0 0 273 82;" xml:space="preserve">
<style type="text/css">
	.st0{fill:#0118F0;}
	.st1{fill:#00EAD9;}
	.st2{fill:#FFFFFF;}
	.st3{fill:#EC1C24;}
</style>
<g>
	<g>
		<path class="st0" d="M91.3,38.2h11.4V28.1h4.5v24.6h-4.5V42H91.3v10.7h-4.5V28.1h4.5V38.2z"/>
		<path class="st0" d="M120.9,49.6c0.8,0,1.7-0.1,2.6-0.3s1.8-0.4,2.8-0.7v3.5c-0.6,0.2-1.4,0.5-2.6,0.7c-1.2,0.2-2.4,0.3-3.6,0.3
			c-1.3,0-2.5-0.2-3.6-0.5c-1.1-0.3-2.1-0.8-3-1.6c-0.8-0.7-1.5-1.7-2-2.8c-0.5-1.2-0.7-2.5-0.7-4.2c0-1.6,0.2-3,0.7-4.2
			c0.5-1.2,1.1-2.2,1.9-3c0.8-0.8,1.7-1.4,2.7-1.8c1-0.4,2.1-0.6,3.1-0.6c1.1,0,2.2,0.2,3.1,0.5c0.9,0.3,1.8,0.9,2.5,1.6
			c0.7,0.7,1.2,1.7,1.6,2.8c0.4,1.2,0.6,2.5,0.6,4.1c0,0.6,0,1.1-0.1,1.6h-11.7c0.1,0.8,0.2,1.5,0.6,2.1c0.3,0.6,0.7,1.1,1.2,1.4
			c0.5,0.4,1.1,0.6,1.7,0.8C119.4,49.5,120.1,49.6,120.9,49.6z M119.2,37.8c-0.6,0-1,0.1-1.5,0.3c-0.4,0.2-0.8,0.5-1.1,0.8
			c-0.3,0.3-0.6,0.8-0.7,1.2c-0.2,0.5-0.3,1-0.4,1.5h7c0-0.5-0.1-1-0.2-1.5c-0.1-0.5-0.3-0.9-0.6-1.2c-0.3-0.3-0.6-0.6-1-0.8
			C120.2,37.9,119.7,37.8,119.2,37.8z"/>
		<path class="st0" d="M141.5,50.8L141.5,50.8c-0.3,0.3-0.6,0.5-1,0.8c-0.3,0.3-0.7,0.5-1.2,0.8c-0.4,0.2-0.9,0.4-1.5,0.6
			c-0.5,0.1-1.1,0.2-1.7,0.2c-0.8,0-1.6-0.1-2.4-0.4c-0.7-0.3-1.4-0.6-1.9-1.1c-0.5-0.5-0.9-1.1-1.2-1.8c-0.3-0.7-0.4-1.5-0.4-2.4
			c0-1,0.2-1.8,0.5-2.6c0.3-0.8,0.8-1.4,1.5-1.9c0.6-0.5,1.4-0.9,2.2-1.2c0.9-0.3,1.8-0.4,2.9-0.4c0.8,0,1.5,0,2.1,0.1
			c0.6,0.1,1.2,0.2,1.7,0.3v-0.7c0-0.4-0.1-0.8-0.2-1.2c-0.1-0.4-0.4-0.7-0.7-1s-0.7-0.5-1.2-0.7c-0.5-0.2-1.1-0.3-1.8-0.3
			c-0.9,0-1.8,0.1-2.6,0.3c-0.9,0.2-1.8,0.5-2.9,0.9v-3.4c0.9-0.4,1.8-0.7,2.8-0.9c1-0.2,2.1-0.3,3.2-0.3c1.3,0,2.4,0.2,3.4,0.5
			c1,0.3,1.8,0.8,2.4,1.3c0.7,0.6,1.1,1.2,1.5,2c0.3,0.8,0.5,1.6,0.5,2.5v6.7c0,1.2,0,2.2,0,3c0,0.8,0,1.6,0.1,2.3h-3.9L141.5,50.8z
			 M141.2,45.1c-0.4-0.1-0.9-0.2-1.4-0.3c-0.5-0.1-1.1-0.1-1.6-0.1c-1.1,0-1.9,0.2-2.5,0.6c-0.6,0.4-0.9,1.1-0.9,1.9
			c0,0.4,0.1,0.8,0.2,1.1c0.1,0.3,0.3,0.5,0.6,0.7c0.2,0.2,0.5,0.3,0.8,0.4c0.3,0.1,0.7,0.1,1,0.1c0.4,0,0.9-0.1,1.2-0.2
			c0.4-0.1,0.8-0.3,1.1-0.4c0.3-0.2,0.6-0.4,0.9-0.6c0.3-0.2,0.5-0.4,0.7-0.6V45.1z"/>
		<path class="st0" d="M149.8,52.6V26.1h4.4v26.6H149.8z"/>
		<path class="st0" d="M170,52.6c-0.5,0.1-1.1,0.3-1.8,0.3s-1.3,0.1-1.9,0.1c-1.5,0-2.7-0.2-3.7-0.7c-0.9-0.5-1.6-1.2-2-2.1
			c-0.3-0.6-0.4-1.5-0.4-2.6v-9.2h-3.3v-3.6h3.3v-5h4.4v5h5.1v3.6h-5.1v8.7c0,0.7,0.1,1.2,0.3,1.5c0.4,0.6,1.1,0.8,2.2,0.8
			c0.5,0,1,0,1.5-0.1c0.5-0.1,1-0.2,1.4-0.3V52.6z"/>
		<path class="st0" d="M177.9,33.3c0,0.9,0,1.7,0,2.3c0,0.6-0.1,1.1-0.2,1.6h0.1c0.3-0.3,0.6-0.7,0.9-1c0.4-0.3,0.8-0.6,1.2-0.9
			c0.4-0.3,1-0.5,1.5-0.6c0.6-0.2,1.2-0.2,1.9-0.2c0.6,0,1.2,0.1,1.7,0.2c0.6,0.1,1.1,0.3,1.6,0.5c0.5,0.2,0.9,0.6,1.3,1
			c0.4,0.4,0.7,0.9,1,1.4c0.2,0.5,0.4,1,0.5,1.6c0.1,0.6,0.2,1.3,0.2,2.1v11.4h-4.4V41.8c0-0.6,0-1-0.1-1.3c0-0.3-0.1-0.7-0.3-0.9
			c-0.3-0.5-0.6-0.9-1.1-1.1c-0.5-0.2-1-0.3-1.6-0.3c-0.8,0-1.6,0.2-2.3,0.6c-0.7,0.4-1.4,1-2,1.7v12.2h-4.4V26.1h4.4V33.3z"/>
		<path class="st0" d="M211.8,43.3h-5.5v-3.8h10v12.4c-0.4,0.1-0.8,0.3-1.4,0.4c-0.6,0.1-1.2,0.3-1.9,0.4c-0.7,0.1-1.4,0.2-2.2,0.3
			c-0.7,0.1-1.5,0.1-2.2,0.1c-2.2,0-4.1-0.3-5.8-0.9c-1.6-0.6-3-1.4-4.1-2.5s-1.9-2.4-2.5-3.8c-0.5-1.5-0.8-3.1-0.8-4.9
			c0-1.3,0.1-2.5,0.4-3.6c0.3-1.2,0.7-2.2,1.3-3.2c0.6-1,1.2-1.9,2-2.7c0.8-0.8,1.7-1.5,2.7-2c1-0.6,2.1-1,3.4-1.3
			c1.2-0.3,2.5-0.4,3.9-0.4c1.2,0,2.4,0.1,3.5,0.3c1.1,0.2,2,0.4,2.7,0.7v3.8c-1-0.3-1.9-0.5-2.9-0.7c-1-0.2-2-0.2-2.9-0.2
			c-1.3,0-2.6,0.2-3.7,0.6c-1.2,0.4-2.2,1-3,1.8c-0.9,0.8-1.5,1.7-2,2.9c-0.5,1.1-0.7,2.5-0.7,3.9c0,2.9,0.8,5.1,2.3,6.5
			c1.5,1.5,3.6,2.2,6.4,2.2c0.5,0,1,0,1.6-0.1s1-0.1,1.5-0.2V43.3z"/>
		<path class="st0" d="M228.4,53.1c-1.8,0-3.3-0.3-4.4-0.9c-1.2-0.6-2.1-1.4-2.7-2.5c-0.3-0.6-0.6-1.2-0.7-1.8
			c-0.2-0.7-0.2-1.4-0.2-2.2V34.9h4.4v10.4c0,0.6,0,1.1,0.1,1.6c0.1,0.4,0.2,0.8,0.4,1.1c0.3,0.5,0.7,0.9,1.2,1.2
			c0.5,0.3,1.2,0.4,1.9,0.4c0.8,0,1.5-0.1,2-0.4c0.6-0.3,1-0.7,1.3-1.3c0.3-0.6,0.4-1.4,0.4-2.4V34.9h4.4v10.9
			c0,1.4-0.3,2.7-0.8,3.7c-0.3,0.6-0.6,1.1-1.1,1.5c-0.4,0.5-1,0.9-1.6,1.2c-0.6,0.3-1.3,0.6-2.1,0.8
			C230.2,53,229.3,53.1,228.4,53.1z"/>
		<path class="st0" d="M251.6,38.3h-0.4c-1.3,0-2.5,0.2-3.5,0.6c-1,0.4-1.8,1-2.3,1.8v11.9H241V34.9h3.6l0.4,2.5h0.1
			c0.5-0.9,1.2-1.6,2.1-2.1c0.9-0.5,2-0.8,3.2-0.8c0.4,0,0.8,0,1.1,0.1V38.3z"/>
		<path class="st0" d="M262.8,53.1c-1.8,0-3.3-0.3-4.4-0.9c-1.2-0.6-2.1-1.4-2.7-2.5c-0.3-0.6-0.6-1.2-0.7-1.8
			c-0.2-0.7-0.2-1.4-0.2-2.2V34.9h4.4v10.4c0,0.6,0,1.1,0.1,1.6c0.1,0.4,0.2,0.8,0.4,1.1c0.3,0.5,0.7,0.9,1.2,1.2
			c0.5,0.3,1.2,0.4,1.9,0.4c0.8,0,1.5-0.1,2-0.4c0.6-0.3,1-0.7,1.3-1.3c0.3-0.6,0.4-1.4,0.4-2.4V34.9h4.4v10.9
			c0,1.4-0.3,2.7-0.8,3.7c-0.3,0.6-0.6,1.1-1.1,1.5c-0.4,0.5-1,0.9-1.6,1.2c-0.6,0.3-1.3,0.6-2.1,0.8
			C264.6,53,263.7,53.1,262.8,53.1z"/>
	</g>
	<g>
		<path class="st1" d="M158.7,63l1.8-2.9h1.4l-2.5,4v2.7h-1.2v-2.7l-2.5-4h1.4L158.7,63L158.7,63z"/>
		<path class="st1" d="M167.7,64.4c0,0.4-0.1,0.7-0.2,1c-0.1,0.3-0.3,0.6-0.5,0.8c-0.2,0.2-0.5,0.4-0.8,0.5c-0.3,0.1-0.6,0.2-1,0.2
			c-0.4,0-0.7-0.1-1-0.2c-0.3-0.1-0.6-0.3-0.8-0.5c-0.2-0.2-0.4-0.5-0.5-0.8c-0.1-0.3-0.2-0.7-0.2-1c0-0.4,0.1-0.7,0.2-1
			c0.1-0.3,0.3-0.6,0.5-0.8c0.2-0.2,0.5-0.4,0.8-0.5c0.3-0.1,0.6-0.2,1-0.2c0.4,0,0.7,0.1,1,0.2c0.3,0.1,0.6,0.3,0.8,0.5
			c0.2,0.2,0.4,0.5,0.5,0.8C167.6,63.6,167.7,64,167.7,64.4z M166.4,64.4c0-0.3,0-0.5-0.1-0.7c-0.1-0.2-0.1-0.4-0.2-0.5
			c-0.1-0.1-0.2-0.2-0.4-0.3c-0.1-0.1-0.3-0.1-0.5-0.1c-0.2,0-0.3,0-0.5,0.1c-0.1,0.1-0.3,0.2-0.4,0.3c-0.1,0.1-0.2,0.3-0.3,0.5
			c-0.1,0.2-0.1,0.4-0.1,0.7c0,0.3,0,0.5,0.1,0.7c0.1,0.2,0.1,0.4,0.3,0.5c0.1,0.1,0.2,0.2,0.4,0.3c0.1,0.1,0.3,0.1,0.5,0.1
			c0.2,0,0.3,0,0.5-0.1c0.1-0.1,0.3-0.2,0.4-0.3c0.1-0.1,0.2-0.3,0.2-0.5C166.4,64.8,166.4,64.6,166.4,64.4z"/>
		<path class="st1" d="M172.1,66.9c-0.5,0-0.9-0.1-1.2-0.2c-0.3-0.2-0.6-0.4-0.7-0.7c-0.1-0.1-0.2-0.3-0.2-0.5
			c0-0.2-0.1-0.4-0.1-0.6v-3h1.2v2.8c0,0.2,0,0.3,0,0.4c0,0.1,0.1,0.2,0.1,0.3c0.1,0.1,0.2,0.3,0.3,0.3c0.1,0.1,0.3,0.1,0.5,0.1
			c0.2,0,0.4,0,0.5-0.1s0.3-0.2,0.3-0.4c0.1-0.2,0.1-0.4,0.1-0.7v-2.9h1.2v3c0,0.4-0.1,0.7-0.2,1c-0.1,0.2-0.2,0.3-0.3,0.4
			c-0.1,0.1-0.3,0.2-0.4,0.3c-0.2,0.1-0.4,0.2-0.6,0.2C172.6,66.9,172.3,66.9,172.1,66.9z"/>
		<path class="st1" d="M179.6,62.9L179.6,62.9c-0.5,0-0.8,0.1-1.1,0.2c-0.3,0.1-0.5,0.3-0.6,0.5v3.2h-1.2v-4.8h1l0.1,0.7h0
			c0.1-0.2,0.3-0.4,0.6-0.6c0.2-0.1,0.5-0.2,0.9-0.2c0.1,0,0.2,0,0.3,0V62.9z"/>
		<path class="st1" d="M185.3,66.8v-6.7h1.8c0.2,0,0.3,0,0.5,0c0.2,0,0.3,0,0.5,0c0.2,0,0.3,0,0.4,0.1c0.1,0,0.3,0.1,0.4,0.1
			c0.4,0.1,0.7,0.3,0.9,0.5c0.3,0.2,0.5,0.4,0.7,0.7c0.2,0.3,0.3,0.6,0.4,0.9c0.1,0.3,0.1,0.7,0.1,1.1c0,0.4,0,0.7-0.1,1
			c-0.1,0.3-0.2,0.6-0.4,0.9c-0.2,0.3-0.4,0.5-0.6,0.7c-0.2,0.2-0.5,0.4-0.9,0.5c-0.3,0.1-0.6,0.2-1,0.2c-0.4,0.1-0.8,0.1-1.2,0.1
			H185.3z M187,65.8c0.7,0,1.3-0.1,1.7-0.3c0.4-0.2,0.6-0.4,0.8-0.8c0.2-0.3,0.3-0.8,0.3-1.3c0-0.3,0-0.5-0.1-0.7s-0.1-0.4-0.3-0.6
			c-0.1-0.2-0.3-0.3-0.4-0.4c-0.2-0.1-0.3-0.2-0.5-0.3c-0.2-0.1-0.4-0.1-0.6-0.2c-0.2,0-0.5-0.1-0.8-0.1h-0.5v4.6H187z"/>
		<path class="st1" d="M193.4,59.5h1.2v1.3h-1.2V59.5z M193.4,61.9h1.2v4.8h-1.2V61.9z"/>
		<path class="st1" d="M200.3,66.9c0-0.1,0-0.1,0-0.2c0-0.1,0-0.2,0-0.2h0c-0.1,0.1-0.2,0.1-0.3,0.2c-0.1,0.1-0.2,0.1-0.3,0.2
			c-0.1,0-0.2,0.1-0.4,0.1c-0.1,0-0.3,0-0.4,0c-0.3,0-0.5,0-0.8-0.1c-0.2-0.1-0.5-0.2-0.7-0.4c-0.2-0.2-0.3-0.5-0.5-0.8
			c-0.1-0.3-0.2-0.7-0.2-1.1c0-0.4,0.1-0.8,0.2-1.1c0.1-0.3,0.3-0.6,0.5-0.8c0.2-0.2,0.4-0.4,0.7-0.5c0.3-0.1,0.5-0.2,0.8-0.2
			c0.3,0,0.6,0.1,0.8,0.2c0.2,0.1,0.4,0.3,0.6,0.5h0l0-0.5h1v4.9c0,0.3,0,0.5-0.1,0.7c0,0.2-0.1,0.4-0.2,0.5
			c-0.1,0.2-0.2,0.3-0.4,0.5c-0.2,0.1-0.4,0.2-0.6,0.3c-0.2,0.1-0.4,0.2-0.7,0.2c-0.3,0-0.5,0.1-0.8,0.1c-0.2,0-0.3,0-0.5,0
			c-0.2,0-0.3,0-0.4,0c-0.1,0-0.3,0-0.4-0.1c-0.1,0-0.2-0.1-0.3-0.1v-1c0.2,0.1,0.5,0.1,0.7,0.2c0.2,0,0.5,0.1,0.8,0.1
			c0.5,0,0.9-0.1,1.2-0.3c0.3-0.2,0.4-0.5,0.4-0.9V66.9z M199.2,66c0.1,0,0.2,0,0.3,0c0.1,0,0.2-0.1,0.3-0.1c0.1,0,0.2-0.1,0.2-0.2
			c0.1-0.1,0.1-0.1,0.2-0.2v-2.2c-0.1-0.1-0.3-0.3-0.5-0.4c-0.2-0.1-0.4-0.2-0.6-0.2c-0.1,0-0.2,0-0.2,0c-0.1,0-0.2,0.1-0.2,0.1
			c-0.1,0-0.2,0.1-0.2,0.2c-0.1,0.1-0.1,0.2-0.2,0.3c-0.1,0.1-0.1,0.3-0.1,0.4c0,0.2-0.1,0.4-0.1,0.6c0,0.2,0,0.5,0.1,0.7
			c0,0.2,0.1,0.4,0.2,0.5c0.1,0.1,0.2,0.2,0.3,0.3C198.9,65.9,199.1,66,199.2,66z"/>
		<path class="st1" d="M204,59.5h1.2v1.3H204V59.5z M204.1,61.9h1.2v4.8h-1.2V61.9z"/>
		<path class="st1" d="M210.8,66.8c-0.1,0-0.3,0.1-0.5,0.1c-0.2,0-0.4,0-0.5,0c-0.4,0-0.7-0.1-1-0.2c-0.3-0.1-0.4-0.3-0.5-0.6
			c-0.1-0.2-0.1-0.4-0.1-0.7v-2.5h-0.9v-1h0.9v-1.4h1.2v1.4h1.4v1h-1.4v2.4c0,0.2,0,0.3,0.1,0.4c0.1,0.2,0.3,0.2,0.6,0.2
			c0.1,0,0.3,0,0.4,0c0.1,0,0.3,0,0.4-0.1V66.8z"/>
		<path class="st1" d="M215.8,66.3L215.8,66.3c-0.1,0.1-0.2,0.1-0.3,0.2c-0.1,0.1-0.2,0.1-0.3,0.2c-0.1,0.1-0.3,0.1-0.4,0.2
			c-0.1,0-0.3,0.1-0.5,0.1c-0.2,0-0.4,0-0.6-0.1c-0.2-0.1-0.4-0.2-0.5-0.3c-0.1-0.1-0.3-0.3-0.3-0.5c-0.1-0.2-0.1-0.4-0.1-0.6
			c0-0.3,0-0.5,0.1-0.7c0.1-0.2,0.2-0.4,0.4-0.5c0.2-0.1,0.4-0.3,0.6-0.3c0.2-0.1,0.5-0.1,0.8-0.1c0.2,0,0.4,0,0.6,0
			c0.2,0,0.3,0.1,0.5,0.1v-0.2c0-0.1,0-0.2-0.1-0.3c0-0.1-0.1-0.2-0.2-0.3c-0.1-0.1-0.2-0.1-0.3-0.2c-0.1,0-0.3-0.1-0.5-0.1
			c-0.2,0-0.5,0-0.7,0.1c-0.2,0.1-0.5,0.1-0.8,0.2v-0.9c0.2-0.1,0.5-0.2,0.8-0.2c0.3-0.1,0.6-0.1,0.9-0.1c0.4,0,0.7,0,0.9,0.1
			c0.3,0.1,0.5,0.2,0.7,0.4s0.3,0.3,0.4,0.5c0.1,0.2,0.1,0.4,0.1,0.7v1.8c0,0.3,0,0.6,0,0.8c0,0.2,0,0.4,0,0.6h-1.1L215.8,66.3z
			 M215.7,64.7c-0.1,0-0.2-0.1-0.4-0.1c-0.1,0-0.3,0-0.4,0c-0.3,0-0.5,0.1-0.7,0.2c-0.2,0.1-0.3,0.3-0.3,0.5c0,0.1,0,0.2,0.1,0.3
			c0,0.1,0.1,0.1,0.2,0.2c0.1,0.1,0.1,0.1,0.2,0.1c0.1,0,0.2,0,0.3,0c0.1,0,0.2,0,0.3,0c0.1,0,0.2-0.1,0.3-0.1
			c0.1,0,0.2-0.1,0.2-0.2c0.1-0.1,0.1-0.1,0.2-0.2V64.7z"/>
		<path class="st1" d="M219.5,66.8v-7.2h1.2v7.2H219.5z"/>
		<path class="st1" d="M228.1,62.8h3.1v-2.8h1.2v6.7h-1.2v-2.9h-3.1v2.9h-1.2v-6.7h1.2V62.8z"/>
		<path class="st1" d="M239.8,64.4c0,0.4-0.1,0.7-0.2,1c-0.1,0.3-0.3,0.6-0.5,0.8c-0.2,0.2-0.5,0.4-0.8,0.5c-0.3,0.1-0.6,0.2-1,0.2
			c-0.4,0-0.7-0.1-1-0.2c-0.3-0.1-0.6-0.3-0.8-0.5c-0.2-0.2-0.4-0.5-0.5-0.8c-0.1-0.3-0.2-0.7-0.2-1c0-0.4,0.1-0.7,0.2-1
			c0.1-0.3,0.3-0.6,0.5-0.8c0.2-0.2,0.5-0.4,0.8-0.5c0.3-0.1,0.6-0.2,1-0.2c0.4,0,0.7,0.1,1,0.2c0.3,0.1,0.6,0.3,0.8,0.5
			c0.2,0.2,0.4,0.5,0.5,0.8C239.7,63.6,239.8,64,239.8,64.4z M238.5,64.4c0-0.3,0-0.5-0.1-0.7c-0.1-0.2-0.1-0.4-0.2-0.5
			c-0.1-0.1-0.2-0.2-0.4-0.3c-0.1-0.1-0.3-0.1-0.5-0.1c-0.2,0-0.3,0-0.5,0.1c-0.1,0.1-0.3,0.2-0.4,0.3c-0.1,0.1-0.2,0.3-0.3,0.5
			c-0.1,0.2-0.1,0.4-0.1,0.7c0,0.3,0,0.5,0.1,0.7c0.1,0.2,0.1,0.4,0.3,0.5s0.2,0.2,0.4,0.3c0.1,0.1,0.3,0.1,0.5,0.1
			c0.2,0,0.3,0,0.5-0.1c0.1-0.1,0.3-0.2,0.4-0.3c0.1-0.1,0.2-0.3,0.2-0.5C238.5,64.8,238.5,64.6,238.5,64.4z"/>
		<path class="st1" d="M244.2,65.4c0-0.1,0-0.2-0.1-0.3c-0.1-0.1-0.1-0.1-0.2-0.2c-0.1,0-0.2-0.1-0.3-0.1c-0.1,0-0.3-0.1-0.4-0.1
			c-0.2,0-0.3-0.1-0.5-0.2c-0.2-0.1-0.3-0.1-0.4-0.2c-0.1-0.1-0.2-0.2-0.3-0.4c-0.1-0.2-0.1-0.3-0.1-0.6c0-0.3,0-0.5,0.1-0.7
			c0.1-0.2,0.2-0.4,0.4-0.5c0.2-0.1,0.4-0.2,0.6-0.3c0.2-0.1,0.4-0.1,0.7-0.1c0.3,0,0.6,0,0.8,0.1c0.3,0,0.5,0.1,0.7,0.2v1
			c-0.1,0-0.2-0.1-0.3-0.1c-0.1,0-0.2-0.1-0.4-0.1c-0.1,0-0.2,0-0.4-0.1c-0.1,0-0.2,0-0.4,0c-0.1,0-0.3,0-0.4,0
			c-0.1,0-0.2,0.1-0.2,0.1c-0.1,0-0.1,0.1-0.1,0.2c0,0.1,0,0.1,0,0.2c0,0.1,0,0.2,0.1,0.3c0.1,0.1,0.1,0.1,0.2,0.2
			c0.1,0,0.2,0.1,0.3,0.1c0.1,0,0.2,0.1,0.3,0.1c0.2,0,0.3,0.1,0.5,0.1c0.2,0.1,0.3,0.1,0.4,0.2c0.1,0.1,0.2,0.2,0.3,0.4
			c0.1,0.2,0.1,0.4,0.1,0.6c0,0.3-0.1,0.5-0.2,0.7c-0.1,0.2-0.2,0.4-0.4,0.5c-0.2,0.1-0.4,0.2-0.7,0.3c-0.3,0.1-0.5,0.1-0.9,0.1
			c-0.3,0-0.6,0-0.8-0.1c-0.2,0-0.4-0.1-0.6-0.2v-1c0.3,0.1,0.5,0.2,0.7,0.2c0.2,0,0.4,0.1,0.6,0.1c0.1,0,0.3,0,0.4,0
			c0.1,0,0.2-0.1,0.3-0.1c0.1,0,0.2-0.1,0.2-0.2C244.2,65.6,244.2,65.5,244.2,65.4z"/>
		<path class="st1" d="M250,66.9c-0.3,0-0.5,0-0.7-0.1c-0.2-0.1-0.4-0.2-0.5-0.4h0c0,0.1,0,0.2,0,0.3c0,0.1,0,0.3,0,0.4v2h-1.2v-7.2
			h1l0,0.5h0c0.1-0.2,0.3-0.4,0.6-0.5c0.2-0.1,0.5-0.2,0.8-0.2c0.3,0,0.5,0,0.8,0.1c0.3,0.1,0.5,0.2,0.7,0.5
			c0.2,0.2,0.4,0.5,0.5,0.8c0.1,0.3,0.2,0.7,0.2,1.1c0,0.4-0.1,0.8-0.2,1.2c-0.1,0.3-0.3,0.6-0.5,0.8c-0.2,0.2-0.4,0.4-0.7,0.5
			C250.6,66.9,250.3,66.9,250,66.9z M249.9,62.8c-0.2,0-0.4,0.1-0.6,0.2c-0.2,0.1-0.4,0.2-0.5,0.4v2.2c0.1,0.1,0.1,0.1,0.2,0.2
			c0.1,0.1,0.1,0.1,0.2,0.2c0.1,0,0.2,0.1,0.3,0.1c0.1,0,0.2,0,0.3,0c0.2,0,0.3,0,0.5-0.1c0.1-0.1,0.3-0.2,0.4-0.3
			c0.1-0.1,0.2-0.3,0.2-0.5c0-0.2,0.1-0.4,0.1-0.7c0-0.3,0-0.5-0.1-0.7c-0.1-0.2-0.1-0.4-0.2-0.5c-0.1-0.1-0.2-0.2-0.3-0.3
			C250.2,62.8,250,62.8,249.9,62.8z"/>
		<path class="st1" d="M254.5,59.5h1.2v1.3h-1.2V59.5z M254.5,61.9h1.2v4.8h-1.2V61.9z"/>
		<path class="st1" d="M261.2,66.8c-0.1,0-0.3,0.1-0.5,0.1c-0.2,0-0.4,0-0.5,0c-0.4,0-0.7-0.1-1-0.2c-0.3-0.1-0.4-0.3-0.5-0.6
			c-0.1-0.2-0.1-0.4-0.1-0.7v-2.5h-0.9v-1h0.9v-1.4h1.2v1.4h1.4v1h-1.4v2.4c0,0.2,0,0.3,0.1,0.4c0.1,0.2,0.3,0.2,0.6,0.2
			c0.1,0,0.3,0,0.4,0c0.1,0,0.3,0,0.4-0.1V66.8z"/>
		<path class="st1" d="M266.2,66.3L266.2,66.3c-0.1,0.1-0.2,0.1-0.3,0.2c-0.1,0.1-0.2,0.1-0.3,0.2c-0.1,0.1-0.3,0.1-0.4,0.2
			c-0.1,0-0.3,0.1-0.5,0.1c-0.2,0-0.4,0-0.6-0.1c-0.2-0.1-0.4-0.2-0.5-0.3c-0.1-0.1-0.3-0.3-0.3-0.5c-0.1-0.2-0.1-0.4-0.1-0.6
			c0-0.3,0-0.5,0.1-0.7c0.1-0.2,0.2-0.4,0.4-0.5c0.2-0.1,0.4-0.3,0.6-0.3c0.2-0.1,0.5-0.1,0.8-0.1c0.2,0,0.4,0,0.6,0
			c0.2,0,0.3,0.1,0.5,0.1v-0.2c0-0.1,0-0.2-0.1-0.3c0-0.1-0.1-0.2-0.2-0.3c-0.1-0.1-0.2-0.1-0.3-0.2c-0.1,0-0.3-0.1-0.5-0.1
			c-0.2,0-0.5,0-0.7,0.1c-0.2,0.1-0.5,0.1-0.8,0.2v-0.9c0.2-0.1,0.5-0.2,0.8-0.2c0.3-0.1,0.6-0.1,0.9-0.1c0.4,0,0.7,0,0.9,0.1
			c0.3,0.1,0.5,0.2,0.7,0.4s0.3,0.3,0.4,0.5c0.1,0.2,0.1,0.4,0.1,0.7v1.8c0,0.3,0,0.6,0,0.8c0,0.2,0,0.4,0,0.6h-1.1L266.2,66.3z
			 M266.1,64.7c-0.1,0-0.2-0.1-0.4-0.1c-0.1,0-0.3,0-0.4,0c-0.3,0-0.5,0.1-0.7,0.2c-0.2,0.1-0.3,0.3-0.3,0.5c0,0.1,0,0.2,0.1,0.3
			c0,0.1,0.1,0.1,0.2,0.2c0.1,0.1,0.1,0.1,0.2,0.1c0.1,0,0.2,0,0.3,0c0.1,0,0.2,0,0.3,0c0.1,0,0.2-0.1,0.3-0.1
			c0.1,0,0.2-0.1,0.2-0.2c0.1-0.1,0.1-0.1,0.2-0.2V64.7z"/>
		<path class="st1" d="M269.9,66.8v-7.2h1.2v7.2H269.9z"/>
	</g>
	<g>
		<path class="st0" d="M40.3,79.4L40.3,79.4C19.2,79.4,1.9,62.1,1.9,41v0c0-21.1,17.3-38.3,38.3-38.3h0c21.1,0,38.3,17.3,38.3,38.3
			v0C78.6,62.1,61.4,79.4,40.3,79.4z"/>
		<g>
			<path class="st2" d="M43.5,47.5c-5.9,0-14.6,0.8-14.6-3.8c0-4.2,5-2.6,6.6-1.8c1.6,0.7,3.4,1.1,5.2,1.1c4.5,0,8.4-2.3,10.7-5.8
				c-0.3,0.1-0.7,0.1-1,0.1c-1.6,0-3-1-3.6-2.5c-1.4,1.8-3.6,3-6.1,3c-4.3,0-7.7-3.4-7.7-7.7c0-2.5,1.2-4.7,3-6.1
				c-1.5-0.5-2.5-1.9-2.5-3.6c0-0.4,0.1-0.7,0.1-1c-3.5,2.3-5.8,6.2-5.8,10.7c0,1.3,0.2,2.5,0.5,3.7c0,0.1,0,0.2,0.1,0.3
				c0.2,0.8,0,1.7-1.1,2.6c-3.9,3-3.7,6.6-3.7,6.6c0,3.8,2,9.2,12.2,9.2s16.1,0.7,16.1,7.1c0,6.1-7.9,6.8-10.6,6.7
				c0,0-3.4,0.1-7.9-1.9c-1,2.7-3.3,4.1-3.3,4.1c1.4,0.6,6.6,2.8,11.1,3c7.9,0.3,15.9-3.2,15.9-11.8C57.3,50.7,49.4,47.5,43.5,47.5z
				"/>
			<g>
				<path class="st1" d="M48,33.6c0,1.4,1.1,2.6,2.6,2.6c1.2,0,2.1-0.8,2.4-1.8c0,0,0-0.1,0.1-0.2c0.3-0.9,0.5-1.8,0.6-2.8
					c-0.7,0.6-1.6,1-2.5,1c-1,0-1.9-0.4-2.6-1.1c-0.1,0.5-0.2,1-0.4,1.5c0,0,0,0,0,0C48,33,48,33.3,48,33.6z"/>
			</g>
			<g>
				<path class="st1" d="M38.8,20c0-1,0.4-1.8,0.9-2.5c-1,0.1-1.9,0.3-2.8,0.6c-0.1,0-0.1,0.1-0.2,0.1c-1,0.3-1.8,1.3-1.8,2.4
					c0,1.4,1.1,2.6,2.6,2.6c0.3,0,0.5,0,0.8-0.1c0,0,0,0,0,0c0.5-0.2,1-0.3,1.5-0.4C39.2,21.9,38.8,21,38.8,20z"/>
			</g>
			<path class="st3" d="M61.5,18.1c-0.5-0.5-1.1-0.8-1.8-0.8c0,0-3.6,0-4.7,0c-0.8,0-1.3-0.6-1.3-1.3c0-1.1,0-4.7,0-4.7
				c0-1.4-1.1-2.6-2.6-2.6c-0.7,0-1.4,0.3-1.8,0.8c-0.5,0.5-0.8,1.1-0.8,1.8c0,0,0,3.6,0,4.7c0,0.8-0.6,1.3-1.3,1.3
				c-1.1,0-4.7,0-4.7,0c-1.4,0-2.6,1.1-2.6,2.6c0,0.7,0.3,1.4,0.8,1.8c0.5,0.5,1.1,0.8,1.8,0.8c0,0,3.6,0,4.7,0
				c0.8,0,1.3,0.6,1.3,1.3c0,1.1,0,4.7,0,4.7c0,1.4,1.1,2.6,2.6,2.6c0.7,0,1.4-0.3,1.8-0.8c0.5-0.5,0.8-1.1,0.8-1.8c0,0,0-3.6,0-4.7
				c0-0.8,0.6-1.3,1.3-1.3c1.1,0,4.7,0,4.7,0c1.4,0,2.6-1.1,2.6-2.6C62.2,19.2,61.9,18.6,61.5,18.1z"/>
			<path class="st1" d="M24.9,52.9c-4.2,0-7.7,3.4-7.7,7.7s3.4,7.7,7.7,7.7c4.2,0,7.7-3.4,7.7-7.7S29.1,52.9,24.9,52.9z M24.9,63.2
				c-1.4,0-2.6-1.1-2.6-2.6c0-1.4,1.1-2.6,2.6-2.6c1.4,0,2.6,1.1,2.6,2.6C27.5,62,26.3,63.2,24.9,63.2z"/>
		</g>
	</g>
</g>
</svg>
