<?xml version="1.0" encoding="utf-8"?>
<!-- Generator: Adobe Illustrator 19.0.0, SVG Export Plug-In . SVG Version: 6.00 Build 0)  -->
<svg version="1.1" id="Layer_1" xmlns="http://www.w3.org/2000/svg" xmlns:xlink="http://www.w3.org/1999/xlink" x="0px" y="0px"
	 viewBox="-43 62 80.3 82" style="enable-background:new -43 62 80.3 82;" xml:space="preserve">
<style type="text/css">
	.st0{fill:#0118F0;}
	.st1{fill:#00EAD9;}
	.st2{fill:#FFFFFF;}
	.st3{fill:#EC1C24;}
</style>
<g>
	<g>
		<path class="st0" d="M48.3,100.2h11.4V90.1h4.5v24.6h-4.5V104H48.3v10.7h-4.5V90.1h4.5V100.2z"/>
		<path class="st0" d="M77.9,111.6c0.8,0,1.7-0.1,2.6-0.3c0.9-0.2,1.8-0.4,2.8-0.7v3.5c-0.6,0.2-1.4,0.5-2.6,0.7
			c-1.2,0.2-2.4,0.3-3.6,0.3c-1.3,0-2.5-0.2-3.6-0.5s-2.1-0.8-3-1.6c-0.8-0.7-1.5-1.7-2-2.8c-0.5-1.2-0.7-2.5-0.7-4.2
			c0-1.6,0.2-3,0.7-4.2c0.5-1.2,1.1-2.2,1.9-3c0.8-0.8,1.7-1.4,2.7-1.8c1-0.4,2.1-0.6,3.1-0.6c1.1,0,2.2,0.2,3.1,0.5
			s1.8,0.9,2.5,1.6s1.2,1.7,1.6,2.8c0.4,1.2,0.6,2.5,0.6,4.1c0,0.6,0,1.1-0.1,1.6H72.2c0.1,0.8,0.2,1.5,0.6,2.1
			c0.3,0.6,0.7,1.1,1.2,1.4c0.5,0.4,1.1,0.6,1.7,0.8C76.4,111.5,77.1,111.6,77.9,111.6z M76.2,99.8c-0.6,0-1,0.1-1.5,0.3
			c-0.4,0.2-0.8,0.5-1.1,0.8c-0.3,0.3-0.6,0.8-0.7,1.2c-0.2,0.5-0.3,1-0.4,1.5h7c0-0.5-0.1-1-0.2-1.5s-0.3-0.9-0.6-1.2
			c-0.3-0.3-0.6-0.6-1-0.8C77.2,99.9,76.7,99.8,76.2,99.8z"/>
		<path class="st0" d="M98.5,112.8L98.5,112.8c-0.3,0.3-0.6,0.5-1,0.8c-0.3,0.3-0.7,0.5-1.2,0.8c-0.4,0.2-0.9,0.4-1.5,0.6
			c-0.5,0.1-1.1,0.2-1.7,0.2c-0.8,0-1.6-0.1-2.4-0.4c-0.7-0.3-1.4-0.6-1.9-1.1s-0.9-1.1-1.2-1.8c-0.3-0.7-0.4-1.5-0.4-2.4
			c0-1,0.2-1.8,0.5-2.6c0.3-0.8,0.8-1.4,1.5-1.9c0.6-0.5,1.4-0.9,2.2-1.2c0.9-0.3,1.8-0.4,2.9-0.4c0.8,0,1.5,0,2.1,0.1
			s1.2,0.2,1.7,0.3v-0.7c0-0.4-0.1-0.8-0.2-1.2c-0.1-0.4-0.4-0.7-0.7-1c-0.3-0.3-0.7-0.5-1.2-0.7s-1.1-0.3-1.8-0.3
			c-0.9,0-1.8,0.1-2.6,0.3c-0.9,0.2-1.8,0.5-2.9,0.9v-3.4c0.9-0.4,1.8-0.7,2.8-0.9s2.1-0.3,3.2-0.3c1.3,0,2.4,0.2,3.4,0.5
			c1,0.3,1.8,0.8,2.4,1.3c0.7,0.6,1.1,1.2,1.5,2c0.3,0.8,0.5,1.6,0.5,2.5v6.7c0,1.2,0,2.2,0,3c0,0.8,0,1.6,0.1,2.3h-3.9L98.5,112.8z
			 M98.2,107.1c-0.4-0.1-0.9-0.2-1.4-0.3c-0.5-0.1-1.1-0.1-1.6-0.1c-1.1,0-1.9,0.2-2.5,0.6c-0.6,0.4-0.9,1.1-0.9,1.9
			c0,0.4,0.1,0.8,0.2,1.1c0.1,0.3,0.3,0.5,0.6,0.7c0.2,0.2,0.5,0.3,0.8,0.4s0.7,0.1,1,0.1c0.4,0,0.9-0.1,1.2-0.2
			c0.4-0.1,0.8-0.3,1.1-0.4c0.3-0.2,0.6-0.4,0.9-0.6c0.3-0.2,0.5-0.4,0.7-0.6v-2.6H98.2z"/>
		<path class="st0" d="M106.8,114.6V88.1h4.4v26.6L106.8,114.6L106.8,114.6z"/>
		<path class="st0" d="M127,114.6c-0.5,0.1-1.1,0.3-1.8,0.3s-1.3,0.1-1.9,0.1c-1.5,0-2.7-0.2-3.7-0.7c-0.9-0.5-1.6-1.2-2-2.1
			c-0.3-0.6-0.4-1.5-0.4-2.6v-9.2h-3.3v-3.6h3.3v-5h4.4v5h5.1v3.6h-5.1v8.7c0,0.7,0.1,1.2,0.3,1.5c0.4,0.6,1.1,0.8,2.2,0.8
			c0.5,0,1,0,1.5-0.1c0.5-0.1,1-0.2,1.4-0.3V114.6z"/>
		<path class="st0" d="M134.9,95.3c0,0.9,0,1.7,0,2.3s-0.1,1.1-0.2,1.6h0.1c0.3-0.3,0.6-0.7,0.9-1c0.4-0.3,0.8-0.6,1.2-0.9
			c0.4-0.3,1-0.5,1.5-0.6c0.6-0.2,1.2-0.2,1.9-0.2c0.6,0,1.2,0.1,1.7,0.2c0.6,0.1,1.1,0.3,1.6,0.5s0.9,0.6,1.3,1
			c0.4,0.4,0.7,0.9,1,1.4c0.2,0.5,0.4,1,0.5,1.6s0.2,1.3,0.2,2.1v11.4h-4.4v-10.9c0-0.6,0-1-0.1-1.3c0-0.3-0.1-0.7-0.3-0.9
			c-0.3-0.5-0.6-0.9-1.1-1.1s-1-0.3-1.6-0.3c-0.8,0-1.6,0.2-2.3,0.6c-0.7,0.4-1.4,1-2,1.7v12.2h-4.4V88.1h4.4v7.2H134.9z"/>
		<path class="st0" d="M168.8,105.3h-5.5v-3.8h10v12.4c-0.4,0.1-0.8,0.3-1.4,0.4c-0.6,0.1-1.2,0.3-1.9,0.4s-1.4,0.2-2.2,0.3
			c-0.7,0.1-1.5,0.1-2.2,0.1c-2.2,0-4.1-0.3-5.8-0.9c-1.6-0.6-3-1.4-4.1-2.5c-1.1-1.1-1.9-2.4-2.5-3.8c-0.5-1.5-0.8-3.1-0.8-4.9
			c0-1.3,0.1-2.5,0.4-3.6c0.3-1.2,0.7-2.2,1.3-3.2s1.2-1.9,2-2.7s1.7-1.5,2.7-2c1-0.6,2.1-1,3.4-1.3c1.2-0.3,2.5-0.4,3.9-0.4
			c1.2,0,2.4,0.1,3.5,0.3c1.1,0.2,2,0.4,2.7,0.7v3.8c-1-0.3-1.9-0.5-2.9-0.7s-2-0.2-2.9-0.2c-1.3,0-2.6,0.2-3.7,0.6
			c-1.2,0.4-2.2,1-3,1.8c-0.9,0.8-1.5,1.7-2,2.9c-0.5,1.1-0.7,2.5-0.7,3.9c0,2.9,0.8,5.1,2.3,6.5c1.5,1.5,3.6,2.2,6.4,2.2
			c0.5,0,1,0,1.6-0.1c0.6-0.1,1-0.1,1.5-0.2v-6H168.8z"/>
		<path class="st0" d="M185.4,115.1c-1.8,0-3.3-0.3-4.4-0.9c-1.2-0.6-2.1-1.4-2.7-2.5c-0.3-0.6-0.6-1.2-0.7-1.8
			c-0.2-0.7-0.2-1.4-0.2-2.2V96.9h4.4v10.4c0,0.6,0,1.1,0.1,1.6c0.1,0.4,0.2,0.8,0.4,1.1c0.3,0.5,0.7,0.9,1.2,1.2
			c0.5,0.3,1.2,0.4,1.9,0.4c0.8,0,1.5-0.1,2-0.4c0.6-0.3,1-0.7,1.3-1.3s0.4-1.4,0.4-2.4V96.9h4.4v10.9c0,1.4-0.3,2.7-0.8,3.7
			c-0.3,0.6-0.6,1.1-1.1,1.5c-0.4,0.5-1,0.9-1.6,1.2s-1.3,0.6-2.1,0.8C187.2,115,186.3,115.1,185.4,115.1z"/>
		<path class="st0" d="M208.6,100.3h-0.4c-1.3,0-2.5,0.2-3.5,0.6c-1,0.4-1.8,1-2.3,1.8v11.9H198V96.9h3.6l0.4,2.5h0.1
			c0.5-0.9,1.2-1.6,2.1-2.1c0.9-0.5,2-0.8,3.2-0.8c0.4,0,0.8,0,1.1,0.1L208.6,100.3L208.6,100.3z"/>
		<path class="st0" d="M219.8,115.1c-1.8,0-3.3-0.3-4.4-0.9c-1.2-0.6-2.1-1.4-2.7-2.5c-0.3-0.6-0.6-1.2-0.7-1.8
			c-0.2-0.7-0.2-1.4-0.2-2.2V96.9h4.4v10.4c0,0.6,0,1.1,0.1,1.6c0.1,0.4,0.2,0.8,0.4,1.1c0.3,0.5,0.7,0.9,1.2,1.2
			c0.5,0.3,1.2,0.4,1.9,0.4c0.8,0,1.5-0.1,2-0.4c0.6-0.3,1-0.7,1.3-1.3s0.4-1.4,0.4-2.4V96.9h4.4v10.9c0,1.4-0.3,2.7-0.8,3.7
			c-0.3,0.6-0.6,1.1-1.1,1.5c-0.4,0.5-1,0.9-1.6,1.2s-1.3,0.6-2.1,0.8C221.6,115,220.7,115.1,219.8,115.1z"/>
	</g>
	<g>
		<path class="st1" d="M115.7,125l1.8-2.9h1.4l-2.5,4v2.7h-1.2v-2.7l-2.5-4h1.4L115.7,125L115.7,125z"/>
		<path class="st1" d="M124.7,126.4c0,0.4-0.1,0.7-0.2,1c-0.1,0.3-0.3,0.6-0.5,0.8c-0.2,0.2-0.5,0.4-0.8,0.5c-0.3,0.1-0.6,0.2-1,0.2
			s-0.7-0.1-1-0.2c-0.3-0.1-0.6-0.3-0.8-0.5c-0.2-0.2-0.4-0.5-0.5-0.8s-0.2-0.7-0.2-1c0-0.4,0.1-0.7,0.2-1c0.1-0.3,0.3-0.6,0.5-0.8
			c0.2-0.2,0.5-0.4,0.8-0.5c0.3-0.1,0.6-0.2,1-0.2s0.7,0.1,1,0.2c0.3,0.1,0.6,0.3,0.8,0.5c0.2,0.2,0.4,0.5,0.5,0.8
			C124.6,125.6,124.7,126,124.7,126.4z M123.4,126.4c0-0.3,0-0.5-0.1-0.7c-0.1-0.2-0.1-0.4-0.2-0.5c-0.1-0.1-0.2-0.2-0.4-0.3
			c-0.1-0.1-0.3-0.1-0.5-0.1s-0.3,0-0.5,0.1c-0.1,0.1-0.3,0.2-0.4,0.3c-0.1,0.1-0.2,0.3-0.3,0.5c-0.1,0.2-0.1,0.4-0.1,0.7
			s0,0.5,0.1,0.7s0.1,0.4,0.3,0.5c0.1,0.1,0.2,0.2,0.4,0.3c0.1,0.1,0.3,0.1,0.5,0.1s0.3,0,0.5-0.1c0.1-0.1,0.3-0.2,0.4-0.3
			c0.1-0.1,0.2-0.3,0.2-0.5C123.4,126.8,123.4,126.6,123.4,126.4z"/>
		<path class="st1" d="M129.1,128.9c-0.5,0-0.9-0.1-1.2-0.2c-0.3-0.2-0.6-0.4-0.7-0.7c-0.1-0.1-0.2-0.3-0.2-0.5s-0.1-0.4-0.1-0.6v-3
			h1.2v2.8c0,0.2,0,0.3,0,0.4s0.1,0.2,0.1,0.3c0.1,0.1,0.2,0.3,0.3,0.3c0.1,0.1,0.3,0.1,0.5,0.1s0.4,0,0.5-0.1s0.3-0.2,0.3-0.4
			c0.1-0.2,0.1-0.4,0.1-0.7v-2.9h1.2v3c0,0.4-0.1,0.7-0.2,1c-0.1,0.2-0.2,0.3-0.3,0.4s-0.3,0.2-0.4,0.3c-0.2,0.1-0.4,0.2-0.6,0.2
			C129.6,128.9,129.3,128.9,129.1,128.9z"/>
		<path class="st1" d="M136.6,124.9L136.6,124.9c-0.5,0-0.8,0.1-1.1,0.2c-0.3,0.1-0.5,0.3-0.6,0.5v3.2h-1.2V124h1l0.1,0.7l0,0
			c0.1-0.2,0.3-0.4,0.6-0.6c0.2-0.1,0.5-0.2,0.9-0.2c0.1,0,0.2,0,0.3,0V124.9z"/>
		<path class="st1" d="M142.3,128.8v-6.7h1.8c0.2,0,0.3,0,0.5,0s0.3,0,0.5,0s0.3,0,0.4,0.1c0.1,0,0.3,0.1,0.4,0.1
			c0.4,0.1,0.7,0.3,0.9,0.5c0.3,0.2,0.5,0.4,0.7,0.7s0.3,0.6,0.4,0.9c0.1,0.3,0.1,0.7,0.1,1.1c0,0.4,0,0.7-0.1,1s-0.2,0.6-0.4,0.9
			s-0.4,0.5-0.6,0.7c-0.2,0.2-0.5,0.4-0.9,0.5c-0.3,0.1-0.6,0.2-1,0.2c-0.4,0.1-0.8,0.1-1.2,0.1L142.3,128.8L142.3,128.8z
			 M144,127.8c0.7,0,1.3-0.1,1.7-0.3c0.4-0.2,0.6-0.4,0.8-0.8c0.2-0.3,0.3-0.8,0.3-1.3c0-0.3,0-0.5-0.1-0.7s-0.1-0.4-0.3-0.6
			c-0.1-0.2-0.3-0.3-0.4-0.4c-0.2-0.1-0.3-0.2-0.5-0.3c-0.2-0.1-0.4-0.1-0.6-0.2c-0.2,0-0.5-0.1-0.8-0.1h-0.5v4.6h0.4V127.8z"/>
		<path class="st1" d="M150.4,121.5h1.2v1.3h-1.2V121.5z M150.4,123.9h1.2v4.8h-1.2V123.9z"/>
		<path class="st1" d="M157.3,128.9c0-0.1,0-0.1,0-0.2c0-0.1,0-0.2,0-0.2l0,0c-0.1,0.1-0.2,0.1-0.3,0.2c-0.1,0.1-0.2,0.1-0.3,0.2
			c-0.1,0-0.2,0.1-0.4,0.1c-0.1,0-0.3,0-0.4,0c-0.3,0-0.5,0-0.8-0.1c-0.2-0.1-0.5-0.2-0.7-0.4c-0.2-0.2-0.3-0.5-0.5-0.8
			c-0.1-0.3-0.2-0.7-0.2-1.1s0.1-0.8,0.2-1.1c0.1-0.3,0.3-0.6,0.5-0.8c0.2-0.2,0.4-0.4,0.7-0.5c0.3-0.1,0.5-0.2,0.8-0.2
			s0.6,0.1,0.8,0.2c0.2,0.1,0.4,0.3,0.6,0.5l0,0v-0.5h1v4.9c0,0.3,0,0.5-0.1,0.7c0,0.2-0.1,0.4-0.2,0.5c-0.1,0.2-0.2,0.3-0.4,0.5
			c-0.2,0.1-0.4,0.2-0.6,0.3c-0.2,0.1-0.4,0.2-0.7,0.2s-0.5,0.1-0.8,0.1c-0.2,0-0.3,0-0.5,0s-0.3,0-0.4,0c-0.1,0-0.3,0-0.4-0.1
			c-0.1,0-0.2-0.1-0.3-0.1v-1c0.2,0.1,0.5,0.1,0.7,0.2c0.2,0,0.5,0.1,0.8,0.1c0.5,0,0.9-0.1,1.2-0.3c0.3-0.2,0.4-0.5,0.4-0.9v-0.4
			H157.3z M156.2,128c0.1,0,0.2,0,0.3,0s0.2-0.1,0.3-0.1s0.2-0.1,0.2-0.2c0.1-0.1,0.1-0.1,0.2-0.2v-2.2c-0.1-0.1-0.3-0.3-0.5-0.4
			c-0.2-0.1-0.4-0.2-0.6-0.2c-0.1,0-0.2,0-0.2,0c-0.1,0-0.2,0.1-0.2,0.1c-0.1,0-0.2,0.1-0.2,0.2c-0.1,0.1-0.1,0.2-0.2,0.3
			c-0.1,0.1-0.1,0.3-0.1,0.4c0,0.2-0.1,0.4-0.1,0.6s0,0.5,0.1,0.7c0,0.2,0.1,0.4,0.2,0.5c0.1,0.1,0.2,0.2,0.3,0.3
			C155.9,127.9,156.1,128,156.2,128z"/>
		<path class="st1" d="M161,121.5h1.2v1.3H161V121.5z M161.1,123.9h1.2v4.8h-1.2V123.9z"/>
		<path class="st1" d="M167.8,128.8c-0.1,0-0.3,0.1-0.5,0.1s-0.4,0-0.5,0c-0.4,0-0.7-0.1-1-0.2c-0.3-0.1-0.4-0.3-0.5-0.6
			c-0.1-0.2-0.1-0.4-0.1-0.7v-2.5h-0.9v-1h0.9v-1.4h1.2v1.4h1.4v1h-1.4v2.4c0,0.2,0,0.3,0.1,0.4c0.1,0.2,0.3,0.2,0.6,0.2
			c0.1,0,0.3,0,0.4,0c0.1,0,0.3,0,0.4-0.1L167.8,128.8L167.8,128.8z"/>
		<path class="st1" d="M172.8,128.3L172.8,128.3c-0.1,0.1-0.2,0.1-0.3,0.2s-0.2,0.1-0.3,0.2s-0.3,0.1-0.4,0.2
			c-0.1,0-0.3,0.1-0.5,0.1s-0.4,0-0.6-0.1c-0.2-0.1-0.4-0.2-0.5-0.3c-0.1-0.1-0.3-0.3-0.3-0.5c-0.1-0.2-0.1-0.4-0.1-0.6
			c0-0.3,0-0.5,0.1-0.7s0.2-0.4,0.4-0.5s0.4-0.3,0.6-0.3c0.2-0.1,0.5-0.1,0.8-0.1c0.2,0,0.4,0,0.6,0c0.2,0,0.3,0.1,0.5,0.1v-0.2
			c0-0.1,0-0.2-0.1-0.3c0-0.1-0.1-0.2-0.2-0.3c-0.1-0.1-0.2-0.1-0.3-0.2c-0.1,0-0.3-0.1-0.5-0.1s-0.5,0-0.7,0.1
			c-0.2,0.1-0.5,0.1-0.8,0.2v-0.9c0.2-0.1,0.5-0.2,0.8-0.2c0.3-0.1,0.6-0.1,0.9-0.1c0.4,0,0.7,0,0.9,0.1c0.3,0.1,0.5,0.2,0.7,0.4
			c0.2,0.2,0.3,0.3,0.4,0.5c0.1,0.2,0.1,0.4,0.1,0.7v1.8c0,0.3,0,0.6,0,0.8s0,0.4,0,0.6h-1.1L172.8,128.3z M172.7,126.7
			c-0.1,0-0.2-0.1-0.4-0.1c-0.1,0-0.3,0-0.4,0c-0.3,0-0.5,0.1-0.7,0.2s-0.3,0.3-0.3,0.5c0,0.1,0,0.2,0.1,0.3c0,0.1,0.1,0.1,0.2,0.2
			c0.1,0.1,0.1,0.1,0.2,0.1c0.1,0,0.2,0,0.3,0s0.2,0,0.3,0s0.2-0.1,0.3-0.1s0.2-0.1,0.2-0.2c0.1-0.1,0.1-0.1,0.2-0.2L172.7,126.7
			L172.7,126.7z"/>
		<path class="st1" d="M176.5,128.8v-7.2h1.2v7.2H176.5z"/>
		<path class="st1" d="M185.1,124.8h3.1V122h1.2v6.7h-1.2v-2.9h-3.1v2.9h-1.2V122h1.2V124.8z"/>
		<path class="st1" d="M196.8,126.4c0,0.4-0.1,0.7-0.2,1c-0.1,0.3-0.3,0.6-0.5,0.8c-0.2,0.2-0.5,0.4-0.8,0.5c-0.3,0.1-0.6,0.2-1,0.2
			s-0.7-0.1-1-0.2c-0.3-0.1-0.6-0.3-0.8-0.5c-0.2-0.2-0.4-0.5-0.5-0.8s-0.2-0.7-0.2-1c0-0.4,0.1-0.7,0.2-1c0.1-0.3,0.3-0.6,0.5-0.8
			c0.2-0.2,0.5-0.4,0.8-0.5c0.3-0.1,0.6-0.2,1-0.2s0.7,0.1,1,0.2c0.3,0.1,0.6,0.3,0.8,0.5c0.2,0.2,0.4,0.5,0.5,0.8
			C196.7,125.6,196.8,126,196.8,126.4z M195.5,126.4c0-0.3,0-0.5-0.1-0.7c-0.1-0.2-0.1-0.4-0.2-0.5c-0.1-0.1-0.2-0.2-0.4-0.3
			c-0.1-0.1-0.3-0.1-0.5-0.1s-0.3,0-0.5,0.1c-0.1,0.1-0.3,0.2-0.4,0.3c-0.1,0.1-0.2,0.3-0.3,0.5c-0.1,0.2-0.1,0.4-0.1,0.7
			s0,0.5,0.1,0.7s0.1,0.4,0.3,0.5s0.2,0.2,0.4,0.3c0.1,0.1,0.3,0.1,0.5,0.1s0.3,0,0.5-0.1c0.1-0.1,0.3-0.2,0.4-0.3
			c0.1-0.1,0.2-0.3,0.2-0.5C195.5,126.8,195.5,126.6,195.5,126.4z"/>
		<path class="st1" d="M201.2,127.4c0-0.1,0-0.2-0.1-0.3c-0.1-0.1-0.1-0.1-0.2-0.2c-0.1,0-0.2-0.1-0.3-0.1s-0.3-0.1-0.4-0.1
			c-0.2,0-0.3-0.1-0.5-0.2s-0.3-0.1-0.4-0.2c-0.1-0.1-0.2-0.2-0.3-0.4c-0.1-0.2-0.1-0.3-0.1-0.6s0-0.5,0.1-0.7
			c0.1-0.2,0.2-0.4,0.4-0.5c0.2-0.1,0.4-0.2,0.6-0.3c0.2-0.1,0.4-0.1,0.7-0.1s0.6,0,0.8,0.1c0.3,0,0.5,0.1,0.7,0.2v1
			c-0.1,0-0.2-0.1-0.3-0.1s-0.2-0.1-0.4-0.1c-0.1,0-0.2,0-0.4-0.1c-0.1,0-0.2,0-0.4,0c-0.1,0-0.3,0-0.4,0c-0.1,0-0.2,0.1-0.2,0.1
			c-0.1,0-0.1,0.1-0.1,0.2c0,0.1,0,0.1,0,0.2c0,0.1,0,0.2,0.1,0.3s0.1,0.1,0.2,0.2c0.1,0,0.2,0.1,0.3,0.1s0.2,0.1,0.3,0.1
			c0.2,0,0.3,0.1,0.5,0.1c0.2,0.1,0.3,0.1,0.4,0.2c0.1,0.1,0.2,0.2,0.3,0.4c0.1,0.2,0.1,0.4,0.1,0.6c0,0.3-0.1,0.5-0.2,0.7
			c-0.1,0.2-0.2,0.4-0.4,0.5s-0.4,0.2-0.7,0.3s-0.5,0.1-0.9,0.1c-0.3,0-0.6,0-0.8-0.1c-0.2,0-0.4-0.1-0.6-0.2v-1
			c0.3,0.1,0.5,0.2,0.7,0.2s0.4,0.1,0.6,0.1c0.1,0,0.3,0,0.4,0c0.1,0,0.2-0.1,0.3-0.1s0.2-0.1,0.2-0.2
			C201.2,127.6,201.2,127.5,201.2,127.4z"/>
		<path class="st1" d="M207,128.9c-0.3,0-0.5,0-0.7-0.1s-0.4-0.2-0.5-0.4l0,0c0,0.1,0,0.2,0,0.3c0,0.1,0,0.3,0,0.4v2h-1.2v-7.2h1
			v0.5l0,0c0.1-0.2,0.3-0.4,0.6-0.5c0.2-0.1,0.5-0.2,0.8-0.2s0.5,0,0.8,0.1s0.5,0.2,0.7,0.5c0.2,0.2,0.4,0.5,0.5,0.8
			c0.1,0.3,0.2,0.7,0.2,1.1s-0.1,0.8-0.2,1.2c-0.1,0.3-0.3,0.6-0.5,0.8c-0.2,0.2-0.4,0.4-0.7,0.5C207.6,128.9,207.3,128.9,207,128.9
			z M206.9,124.8c-0.2,0-0.4,0.1-0.6,0.2c-0.2,0.1-0.4,0.2-0.5,0.4v2.2c0.1,0.1,0.1,0.1,0.2,0.2c0.1,0.1,0.1,0.1,0.2,0.2
			c0.1,0,0.2,0.1,0.3,0.1s0.2,0,0.3,0c0.2,0,0.3,0,0.5-0.1c0.1-0.1,0.3-0.2,0.4-0.3c0.1-0.1,0.2-0.3,0.2-0.5s0.1-0.4,0.1-0.7
			c0-0.3,0-0.5-0.1-0.7c-0.1-0.2-0.1-0.4-0.2-0.5c-0.1-0.1-0.2-0.2-0.3-0.3C207.2,124.8,207,124.8,206.9,124.8z"/>
		<path class="st1" d="M211.5,121.5h1.2v1.3h-1.2V121.5z M211.5,123.9h1.2v4.8h-1.2V123.9z"/>
		<path class="st1" d="M218.2,128.8c-0.1,0-0.3,0.1-0.5,0.1s-0.4,0-0.5,0c-0.4,0-0.7-0.1-1-0.2c-0.3-0.1-0.4-0.3-0.5-0.6
			c-0.1-0.2-0.1-0.4-0.1-0.7v-2.5h-0.9v-1h0.9v-1.4h1.2v1.4h1.4v1h-1.4v2.4c0,0.2,0,0.3,0.1,0.4c0.1,0.2,0.3,0.2,0.6,0.2
			c0.1,0,0.3,0,0.4,0s0.3,0,0.4-0.1v1H218.2z"/>
		<path class="st1" d="M223.2,128.3L223.2,128.3c-0.1,0.1-0.2,0.1-0.3,0.2c-0.1,0.1-0.2,0.1-0.3,0.2c-0.1,0.1-0.3,0.1-0.4,0.2
			c-0.1,0-0.3,0.1-0.5,0.1s-0.4,0-0.6-0.1s-0.4-0.2-0.5-0.3c-0.1-0.1-0.3-0.3-0.3-0.5c-0.1-0.2-0.1-0.4-0.1-0.6c0-0.3,0-0.5,0.1-0.7
			s0.2-0.4,0.4-0.5c0.2-0.1,0.4-0.3,0.6-0.3c0.2-0.1,0.5-0.1,0.8-0.1c0.2,0,0.4,0,0.6,0s0.3,0.1,0.5,0.1v-0.2c0-0.1,0-0.2-0.1-0.3
			c0-0.1-0.1-0.2-0.2-0.3s-0.2-0.1-0.3-0.2c-0.1,0-0.3-0.1-0.5-0.1s-0.5,0-0.7,0.1c-0.2,0.1-0.5,0.1-0.8,0.2v-0.9
			c0.2-0.1,0.5-0.2,0.8-0.2c0.3-0.1,0.6-0.1,0.9-0.1c0.4,0,0.7,0,0.9,0.1c0.3,0.1,0.5,0.2,0.7,0.4c0.2,0.2,0.3,0.3,0.4,0.5
			c0.1,0.2,0.1,0.4,0.1,0.7v1.8c0,0.3,0,0.6,0,0.8s0,0.4,0,0.6h-1.1L223.2,128.3z M223.1,126.7c-0.1,0-0.2-0.1-0.4-0.1
			c-0.1,0-0.3,0-0.4,0c-0.3,0-0.5,0.1-0.7,0.2s-0.3,0.3-0.3,0.5c0,0.1,0,0.2,0.1,0.3c0,0.1,0.1,0.1,0.2,0.2s0.1,0.1,0.2,0.1
			s0.2,0,0.3,0c0.1,0,0.2,0,0.3,0c0.1,0,0.2-0.1,0.3-0.1c0.1,0,0.2-0.1,0.2-0.2c0.1-0.1,0.1-0.1,0.2-0.2L223.1,126.7L223.1,126.7z"
			/>
		<path class="st1" d="M226.9,128.8v-7.2h1.2v7.2H226.9z"/>
	</g>
	<g>
		<path class="st0" d="M-2.7,141.4L-2.7,141.4c-21.1,0-38.4-17.3-38.4-38.4l0,0c0-21.1,17.3-38.3,38.3-38.3l0,0
			c21.1,0,38.3,17.3,38.3,38.3l0,0C35.6,124.1,18.4,141.4-2.7,141.4z"/>
		<g>
			<path class="st2" d="M0.5,109.5c-5.9,0-14.6,0.8-14.6-3.8c0-4.2,5-2.6,6.6-1.8c1.6,0.7,3.4,1.1,5.2,1.1c4.5,0,8.4-2.3,10.7-5.8
				c-0.3,0.1-0.7,0.1-1,0.1c-1.6,0-3-1-3.6-2.5c-1.4,1.8-3.6,3-6.1,3c-4.3,0-7.7-3.4-7.7-7.7c0-2.5,1.2-4.7,3-6.1
				c-1.5-0.5-2.5-1.9-2.5-3.6c0-0.4,0.1-0.7,0.1-1c-3.5,2.3-5.8,6.2-5.8,10.7c0,1.3,0.2,2.5,0.5,3.7c0,0.1,0,0.2,0.1,0.3
				c0.2,0.8,0,1.7-1.1,2.6c-3.9,3-3.7,6.6-3.7,6.6c0,3.8,2,9.2,12.2,9.2s16.1,0.7,16.1,7.1c0,6.1-7.9,6.8-10.6,6.7
				c0,0-3.4,0.1-7.9-1.9c-1,2.7-3.3,4.1-3.3,4.1c1.4,0.6,6.6,2.8,11.1,3c7.9,0.3,15.9-3.2,15.9-11.8C14.3,112.7,6.4,109.5,0.5,109.5
				z"/>
			<g>
				<path class="st1" d="M5,95.6c0,1.4,1.1,2.6,2.6,2.6c1.2,0,2.1-0.8,2.4-1.8c0,0,0-0.1,0.1-0.2c0.3-0.9,0.5-1.8,0.6-2.8
					c-0.7,0.6-1.6,1-2.5,1c-1,0-1.9-0.4-2.6-1.1c-0.1,0.5-0.2,1-0.4,1.5l0,0C5,95,5,95.3,5,95.6z"/>
			</g>
			<g>
				<path class="st1" d="M-4.2,82c0-1,0.4-1.8,0.9-2.5c-1,0.1-1.9,0.3-2.8,0.6c-0.1,0-0.1,0.1-0.2,0.1c-1,0.3-1.8,1.3-1.8,2.4
					c0,1.4,1.1,2.6,2.6,2.6c0.3,0,0.5,0,0.8-0.1l0,0c0.5-0.2,1-0.3,1.5-0.4C-3.8,83.9-4.2,83-4.2,82z"/>
			</g>
			<path class="st3" d="M18.5,80.1c-0.5-0.5-1.1-0.8-1.8-0.8c0,0-3.6,0-4.7,0c-0.8,0-1.3-0.6-1.3-1.3c0-1.1,0-4.7,0-4.7
				c0-1.4-1.1-2.6-2.6-2.6c-0.7,0-1.4,0.3-1.8,0.8c-0.5,0.5-0.8,1.1-0.8,1.8c0,0,0,3.6,0,4.7c0,0.8-0.6,1.3-1.3,1.3
				c-1.1,0-4.7,0-4.7,0c-1.4,0-2.6,1.1-2.6,2.6c0,0.7,0.3,1.4,0.8,1.8c0.5,0.5,1.1,0.8,1.8,0.8c0,0,3.6,0,4.7,0
				c0.8,0,1.3,0.6,1.3,1.3c0,1.1,0,4.7,0,4.7c0,1.4,1.1,2.6,2.6,2.6c0.7,0,1.4-0.3,1.8-0.8c0.5-0.5,0.8-1.1,0.8-1.8c0,0,0-3.6,0-4.7
				c0-0.8,0.6-1.3,1.3-1.3c1.1,0,4.7,0,4.7,0c1.4,0,2.6-1.1,2.6-2.6C19.2,81.2,18.9,80.6,18.5,80.1z"/>
			<path class="st1" d="M-18.1,114.9c-4.2,0-7.7,3.4-7.7,7.7c0,4.3,3.4,7.7,7.7,7.7c4.2,0,7.7-3.4,7.7-7.7
				C-10.4,118.3-13.9,114.9-18.1,114.9z M-18.1,125.2c-1.4,0-2.6-1.1-2.6-2.6c0-1.4,1.1-2.6,2.6-2.6c1.4,0,2.6,1.1,2.6,2.6
				C-15.5,124-16.7,125.2-18.1,125.2z"/>
		</g>
	</g>
</g>
</svg>
